<svg xmlns="http://www.w3.org/2000/svg" xmlns:xlink="http://www.w3.org/1999/xlink" width="180" zoomAndPan="magnify" viewBox="0 0 135 68.999997" height="92" preserveAspectRatio="xMidYMid meet" version="1.0"><defs><g/><clipPath id="0ccb237391"><path d="M 2.59375 12.75 L 42.34375 12.75 L 42.34375 52.5 L 2.59375 52.5 Z M 2.59375 12.75 " clip-rule="nonzero"/></clipPath><clipPath id="3befeabe5a"><path d="M 31.796875 36.203125 L 36.964844 39.242188 C 37.527344 39.570312 37.714844 40.269531 37.386719 40.832031 C 35.703125 43.660156 33.339844 46 30.535156 47.636719 C 27.800781 49.203125 24.621094 50.089844 21.253906 50.089844 C 21.019531 50.089844 20.714844 50.089844 20.363281 50.066406 L 20.316406 50.066406 C 19.96875 50.792969 19.40625 51.378906 18.726562 51.773438 C 17.839844 52.289062 16.761719 52.453125 15.710938 52.171875 C 14.636719 51.890625 13.792969 51.191406 13.28125 50.324219 C 12.765625 49.4375 12.601562 48.359375 12.882812 47.285156 C 13.164062 46.234375 13.863281 45.367188 14.730469 44.878906 C 15.617188 44.363281 16.71875 44.175781 17.769531 44.457031 C 18.820312 44.761719 19.6875 45.4375 20.199219 46.328125 C 20.433594 46.746094 20.597656 47.238281 20.691406 47.730469 C 20.855469 47.730469 21.042969 47.753906 21.253906 47.753906 C 24.199219 47.753906 26.980469 46.957031 29.367188 45.601562 C 31.496094 44.363281 33.339844 42.679688 34.746094 40.644531 L 30.628906 38.238281 C 30.277344 38.726562 29.882812 39.171875 29.460938 39.617188 C 27.355469 41.699219 24.457031 43.007812 21.253906 43.007812 C 18.074219 43.007812 15.171875 41.699219 13.070312 39.617188 C 12.625 39.148438 12.179688 38.632812 11.804688 38.097656 L 6.59375 41.019531 C 6.03125 41.347656 5.304688 41.136719 5.003906 40.574219 L 4.980469 40.574219 C 4.207031 39.148438 3.597656 37.652344 3.203125 36.109375 C 2.804688 34.589844 2.59375 33.023438 2.59375 31.410156 C 2.59375 29.445312 2.898438 27.550781 3.460938 25.773438 C 3.972656 24.160156 4.699219 22.664062 5.585938 21.285156 C 5.121094 20.605469 4.910156 19.835938 4.910156 19.039062 C 4.910156 18.035156 5.28125 17.003906 6.078125 16.234375 C 6.847656 15.4375 7.878906 15.066406 8.882812 15.066406 C 9.914062 15.066406 10.941406 15.4375 11.714844 16.234375 C 12.484375 17.003906 12.882812 18.035156 12.882812 19.039062 C 12.882812 20.070312 12.484375 21.097656 11.714844 21.867188 C 10.941406 22.640625 9.914062 23.039062 8.882812 23.039062 C 8.394531 23.039062 7.902344 22.945312 7.433594 22.757812 C 6.710938 23.902344 6.125 25.167969 5.703125 26.476562 C 5.210938 28.042969 4.933594 29.703125 4.933594 31.410156 C 4.933594 32.835938 5.121094 34.214844 5.46875 35.523438 C 5.726562 36.507812 6.078125 37.464844 6.5 38.378906 L 10.660156 36.0625 C 10.03125 34.636719 9.679688 33.070312 9.679688 31.410156 C 9.679688 28.230469 10.988281 25.328125 13.070312 23.226562 C 14.917969 21.402344 17.371094 20.1875 20.082031 19.90625 L 20.082031 13.917969 C 20.082031 13.265625 20.621094 12.75 21.253906 12.75 C 24.949219 12.75 28.40625 13.824219 31.308594 15.695312 C 34.089844 17.472656 36.382812 19.953125 37.878906 22.921875 C 38.695312 22.851562 39.492188 23.039062 40.144531 23.4375 L 40.167969 23.4375 C 41.035156 23.949219 41.734375 24.792969 42.015625 25.867188 C 42.296875 26.917969 42.132812 27.996094 41.617188 28.882812 C 41.105469 29.773438 40.261719 30.472656 39.1875 30.753906 C 38.136719 31.035156 37.058594 30.847656 36.171875 30.355469 L 36.171875 30.332031 L 36.171875 30.355469 C 35.28125 29.84375 34.605469 28.976562 34.300781 27.925781 C 34.019531 26.871094 34.207031 25.796875 34.722656 24.910156 L 34.722656 24.886719 C 34.957031 24.464844 35.28125 24.066406 35.679688 23.761719 C 34.371094 21.285156 32.40625 19.179688 30.042969 17.660156 C 27.824219 16.234375 25.226562 15.34375 22.445312 15.136719 L 22.445312 19.90625 C 25.15625 20.1875 27.613281 21.402344 29.460938 23.226562 C 31.542969 25.328125 32.851562 28.230469 32.851562 31.410156 C 32.851562 33.140625 32.476562 34.753906 31.796875 36.203125 Z M 27.800781 24.886719 C 26.117188 23.226562 23.800781 22.195312 21.253906 22.195312 C 18.726562 22.195312 16.414062 23.226562 14.730469 24.886719 C 13.070312 26.570312 12.039062 28.882812 12.039062 31.410156 C 12.039062 33.957031 13.070312 36.273438 14.730469 37.957031 C 16.414062 39.617188 18.726562 40.644531 21.253906 40.644531 C 23.800781 40.644531 26.117188 39.617188 27.800781 37.957031 C 29.460938 36.273438 30.488281 33.957031 30.488281 31.410156 C 30.488281 28.882812 29.460938 26.570312 27.800781 24.886719 Z M 21.253906 26.6875 C 22.5625 26.6875 23.753906 27.222656 24.597656 28.089844 C 25.460938 28.929688 26 30.125 26 31.410156 C 26 32.71875 25.460938 33.910156 24.597656 34.753906 C 23.753906 35.617188 22.5625 36.15625 21.253906 36.15625 C 19.96875 36.15625 18.773438 35.617188 17.933594 34.753906 C 17.066406 33.910156 16.53125 32.71875 16.53125 31.410156 C 16.53125 30.125 17.066406 28.929688 17.933594 28.089844 C 18.773438 27.222656 19.96875 26.6875 21.253906 26.6875 Z M 22.9375 29.75 C 22.515625 29.304688 21.929688 29.046875 21.253906 29.046875 C 20.597656 29.046875 20.015625 29.304688 19.59375 29.75 C 19.148438 30.167969 18.890625 30.753906 18.890625 31.410156 C 18.890625 32.085938 19.148438 32.671875 19.59375 33.09375 C 20.015625 33.535156 20.597656 33.792969 21.253906 33.792969 C 21.929688 33.792969 22.515625 33.535156 22.9375 33.09375 C 23.378906 32.671875 23.636719 32.085938 23.636719 31.410156 C 23.636719 30.753906 23.378906 30.167969 22.9375 29.75 Z M 8.882812 17.402344 C 8.460938 17.402344 8.042969 17.566406 7.738281 17.894531 C 7.410156 18.199219 7.246094 18.617188 7.246094 19.039062 C 7.246094 19.460938 7.410156 19.882812 7.738281 20.207031 C 8.042969 20.535156 8.460938 20.699219 8.882812 20.699219 C 9.304688 20.699219 9.726562 20.535156 10.054688 20.207031 C 10.378906 19.882812 10.542969 19.460938 10.542969 19.039062 C 10.542969 18.617188 10.378906 18.199219 10.054688 17.894531 C 9.726562 17.566406 9.304688 17.402344 8.882812 17.402344 Z M 15.3125 49.132812 C 15.523438 49.507812 15.875 49.789062 16.320312 49.90625 C 16.738281 50.019531 17.183594 49.953125 17.558594 49.742188 C 17.933594 49.53125 18.214844 49.179688 18.332031 48.757812 C 18.445312 48.316406 18.378906 47.871094 18.167969 47.496094 C 17.957031 47.144531 17.605469 46.839844 17.160156 46.722656 C 16.71875 46.609375 16.273438 46.679688 15.921875 46.886719 C 15.546875 47.097656 15.265625 47.449219 15.148438 47.894531 C 15.035156 48.339844 15.101562 48.78125 15.3125 49.132812 Z M 39.585938 27.714844 C 39.796875 27.339844 39.867188 26.894531 39.75 26.476562 C 39.632812 26.03125 39.351562 25.679688 38.976562 25.46875 C 38.625 25.257812 38.183594 25.1875 37.738281 25.304688 C 37.292969 25.421875 36.941406 25.703125 36.730469 26.078125 C 36.523438 26.429688 36.453125 26.871094 36.570312 27.316406 C 36.683594 27.761719 36.988281 28.113281 37.339844 28.324219 C 37.714844 28.53125 38.160156 28.601562 38.601562 28.484375 C 39.023438 28.371094 39.375 28.089844 39.585938 27.714844 Z M 39.585938 27.714844 " clip-rule="nonzero"/></clipPath><linearGradient x1="5.467643" gradientTransform="matrix(2.338235, 0, 0, 2.338235, 2.593905, 12.749998)" y1="18.393141" x2="10.644645" gradientUnits="userSpaceOnUse" y2="-1.637404" id="a291bf13bd"><stop stop-opacity="1" stop-color="rgb(39.035034%, 38.296509%, 37.496948%)" offset="0"/><stop stop-opacity="1" stop-color="rgb(39.147949%, 38.406372%, 37.606812%)" offset="0.0078125"/><stop stop-opacity="1" stop-color="rgb(39.373779%, 38.626099%, 37.826538%)" offset="0.015625"/><stop stop-opacity="1" stop-color="rgb(39.599609%, 38.845825%, 38.044739%)" offset="0.0234375"/><stop stop-opacity="1" stop-color="rgb(39.823914%, 39.065552%, 38.264465%)" offset="0.03125"/><stop stop-opacity="1" stop-color="rgb(40.049744%, 39.283752%, 38.484192%)" offset="0.0390625"/><stop stop-opacity="1" stop-color="rgb(40.275574%, 39.503479%, 38.703918%)" offset="0.046875"/><stop stop-opacity="1" stop-color="rgb(40.501404%, 39.723206%, 38.923645%)" offset="0.0546875"/><stop stop-opacity="1" stop-color="rgb(40.727234%, 39.942932%, 39.143372%)" offset="0.0625"/><stop stop-opacity="1" stop-color="rgb(40.951538%, 40.162659%, 39.361572%)" offset="0.0703125"/><stop stop-opacity="1" stop-color="rgb(41.177368%, 40.380859%, 39.581299%)" offset="0.078125"/><stop stop-opacity="1" stop-color="rgb(41.403198%, 40.600586%, 39.801025%)" offset="0.0859375"/><stop stop-opacity="1" stop-color="rgb(41.629028%, 40.820312%, 40.020752%)" offset="0.09375"/><stop stop-opacity="1" stop-color="rgb(41.853333%, 41.040039%, 40.240479%)" offset="0.101563"/><stop stop-opacity="1" stop-color="rgb(42.079163%, 41.259766%, 40.458679%)" offset="0.109375"/><stop stop-opacity="1" stop-color="rgb(42.304993%, 41.477966%, 40.678406%)" offset="0.117188"/><stop stop-opacity="1" stop-color="rgb(42.530823%, 41.697693%, 40.898132%)" offset="0.125"/><stop stop-opacity="1" stop-color="rgb(42.756653%, 41.917419%, 41.117859%)" offset="0.132812"/><stop stop-opacity="1" stop-color="rgb(42.980957%, 42.137146%, 41.337585%)" offset="0.140625"/><stop stop-opacity="1" stop-color="rgb(43.206787%, 42.356873%, 41.555786%)" offset="0.148437"/><stop stop-opacity="1" stop-color="rgb(43.432617%, 42.575073%, 41.775513%)" offset="0.15625"/><stop stop-opacity="1" stop-color="rgb(43.658447%, 42.7948%, 41.995239%)" offset="0.164062"/><stop stop-opacity="1" stop-color="rgb(43.882751%, 43.014526%, 42.214966%)" offset="0.171875"/><stop stop-opacity="1" stop-color="rgb(44.108582%, 43.234253%, 42.434692%)" offset="0.179687"/><stop stop-opacity="1" stop-color="rgb(44.334412%, 43.453979%, 42.652893%)" offset="0.1875"/><stop stop-opacity="1" stop-color="rgb(44.560242%, 43.67218%, 42.87262%)" offset="0.195312"/><stop stop-opacity="1" stop-color="rgb(44.784546%, 43.891907%, 43.092346%)" offset="0.203125"/><stop stop-opacity="1" stop-color="rgb(45.010376%, 44.111633%, 43.312073%)" offset="0.205375"/><stop stop-opacity="1" stop-color="rgb(45.123291%, 44.221497%, 43.421936%)" offset="0.210938"/><stop stop-opacity="1" stop-color="rgb(45.236206%, 44.33136%, 43.531799%)" offset="0.21875"/><stop stop-opacity="1" stop-color="rgb(45.462036%, 44.551086%, 43.75%)" offset="0.226562"/><stop stop-opacity="1" stop-color="rgb(45.687866%, 44.770813%, 43.969727%)" offset="0.234375"/><stop stop-opacity="1" stop-color="rgb(45.91217%, 44.989014%, 44.189453%)" offset="0.242187"/><stop stop-opacity="1" stop-color="rgb(46.138%, 45.20874%, 44.40918%)" offset="0.25"/><stop stop-opacity="1" stop-color="rgb(46.363831%, 45.428467%, 44.628906%)" offset="0.257812"/><stop stop-opacity="1" stop-color="rgb(46.589661%, 45.648193%, 44.847107%)" offset="0.265625"/><stop stop-opacity="1" stop-color="rgb(46.813965%, 45.86792%, 45.066833%)" offset="0.273437"/><stop stop-opacity="1" stop-color="rgb(47.039795%, 46.086121%, 45.28656%)" offset="0.28125"/><stop stop-opacity="1" stop-color="rgb(47.265625%, 46.305847%, 45.506287%)" offset="0.289062"/><stop stop-opacity="1" stop-color="rgb(47.491455%, 46.525574%, 45.726013%)" offset="0.296875"/><stop stop-opacity="1" stop-color="rgb(47.717285%, 46.7453%, 45.944214%)" offset="0.304687"/><stop stop-opacity="1" stop-color="rgb(47.941589%, 46.965027%, 46.16394%)" offset="0.3125"/><stop stop-opacity="1" stop-color="rgb(48.167419%, 47.183228%, 46.383667%)" offset="0.320312"/><stop stop-opacity="1" stop-color="rgb(48.39325%, 47.402954%, 46.603394%)" offset="0.328125"/><stop stop-opacity="1" stop-color="rgb(48.61908%, 47.622681%, 46.82312%)" offset="0.335937"/><stop stop-opacity="1" stop-color="rgb(48.843384%, 47.842407%, 47.042847%)" offset="0.34375"/><stop stop-opacity="1" stop-color="rgb(49.069214%, 48.062134%, 47.261047%)" offset="0.351562"/><stop stop-opacity="1" stop-color="rgb(49.295044%, 48.280334%, 47.480774%)" offset="0.359375"/><stop stop-opacity="1" stop-color="rgb(49.520874%, 48.500061%, 47.7005%)" offset="0.367187"/><stop stop-opacity="1" stop-color="rgb(49.745178%, 48.719788%, 47.920227%)" offset="0.375"/><stop stop-opacity="1" stop-color="rgb(49.971008%, 48.939514%, 48.139954%)" offset="0.382812"/><stop stop-opacity="1" stop-color="rgb(50.196838%, 49.159241%, 48.358154%)" offset="0.390625"/><stop stop-opacity="1" stop-color="rgb(50.422668%, 49.377441%, 48.577881%)" offset="0.398437"/><stop stop-opacity="1" stop-color="rgb(50.648499%, 49.597168%, 48.797607%)" offset="0.40625"/><stop stop-opacity="1" stop-color="rgb(50.872803%, 49.816895%, 49.017334%)" offset="0.414062"/><stop stop-opacity="1" stop-color="rgb(51.098633%, 50.036621%, 49.237061%)" offset="0.421875"/><stop stop-opacity="1" stop-color="rgb(51.324463%, 50.256348%, 49.455261%)" offset="0.429687"/><stop stop-opacity="1" stop-color="rgb(51.550293%, 50.474548%, 49.674988%)" offset="0.4375"/><stop stop-opacity="1" stop-color="rgb(51.774597%, 50.694275%, 49.894714%)" offset="0.445312"/><stop stop-opacity="1" stop-color="rgb(52.000427%, 50.914001%, 50.114441%)" offset="0.453125"/><stop stop-opacity="1" stop-color="rgb(52.226257%, 51.133728%, 50.334167%)" offset="0.460937"/><stop stop-opacity="1" stop-color="rgb(52.487183%, 51.387024%, 50.587463%)" offset="0.46875"/><stop stop-opacity="1" stop-color="rgb(52.87323%, 51.760864%, 50.956726%)" offset="0.472656"/><stop stop-opacity="1" stop-color="rgb(53.111267%, 51.991272%, 51.182556%)" offset="0.476562"/><stop stop-opacity="1" stop-color="rgb(53.347778%, 52.220154%, 51.408386%)" offset="0.480469"/><stop stop-opacity="1" stop-color="rgb(53.585815%, 52.450562%, 51.635742%)" offset="0.484375"/><stop stop-opacity="1" stop-color="rgb(53.822327%, 52.680969%, 51.861572%)" offset="0.488281"/><stop stop-opacity="1" stop-color="rgb(54.060364%, 52.911377%, 52.088928%)" offset="0.492187"/><stop stop-opacity="1" stop-color="rgb(54.296875%, 53.140259%, 52.314758%)" offset="0.496094"/><stop stop-opacity="1" stop-color="rgb(54.533386%, 53.370667%, 52.542114%)" offset="0.5"/><stop stop-opacity="1" stop-color="rgb(54.769897%, 53.599548%, 52.767944%)" offset="0.503906"/><stop stop-opacity="1" stop-color="rgb(55.007935%, 53.829956%, 52.9953%)" offset="0.507812"/><stop stop-opacity="1" stop-color="rgb(55.244446%, 54.058838%, 53.22113%)" offset="0.511719"/><stop stop-opacity="1" stop-color="rgb(55.482483%, 54.289246%, 53.44696%)" offset="0.515625"/><stop stop-opacity="1" stop-color="rgb(55.718994%, 54.518127%, 53.672791%)" offset="0.519531"/><stop stop-opacity="1" stop-color="rgb(55.957031%, 54.748535%, 53.900146%)" offset="0.523438"/><stop stop-opacity="1" stop-color="rgb(56.193542%, 54.977417%, 54.125977%)" offset="0.527344"/><stop stop-opacity="1" stop-color="rgb(56.43158%, 55.207825%, 54.353333%)" offset="0.53125"/><stop stop-opacity="1" stop-color="rgb(56.668091%, 55.436707%, 54.579163%)" offset="0.535156"/><stop stop-opacity="1" stop-color="rgb(56.906128%, 55.667114%, 54.806519%)" offset="0.539062"/><stop stop-opacity="1" stop-color="rgb(57.142639%, 55.895996%, 55.032349%)" offset="0.542969"/><stop stop-opacity="1" stop-color="rgb(57.37915%, 56.126404%, 55.258179%)" offset="0.546875"/><stop stop-opacity="1" stop-color="rgb(57.615662%, 56.355286%, 55.484009%)" offset="0.550781"/><stop stop-opacity="1" stop-color="rgb(57.853699%, 56.585693%, 55.711365%)" offset="0.554688"/><stop stop-opacity="1" stop-color="rgb(58.09021%, 56.814575%, 55.937195%)" offset="0.558594"/><stop stop-opacity="1" stop-color="rgb(58.328247%, 57.044983%, 56.164551%)" offset="0.5625"/><stop stop-opacity="1" stop-color="rgb(58.564758%, 57.273865%, 56.390381%)" offset="0.566406"/><stop stop-opacity="1" stop-color="rgb(58.802795%, 57.504272%, 56.617737%)" offset="0.570312"/><stop stop-opacity="1" stop-color="rgb(59.039307%, 57.73468%, 56.843567%)" offset="0.574219"/><stop stop-opacity="1" stop-color="rgb(59.277344%, 57.965088%, 57.069397%)" offset="0.578125"/><stop stop-opacity="1" stop-color="rgb(59.513855%, 58.19397%, 57.295227%)" offset="0.582031"/><stop stop-opacity="1" stop-color="rgb(59.751892%, 58.424377%, 57.522583%)" offset="0.585937"/><stop stop-opacity="1" stop-color="rgb(59.988403%, 58.653259%, 57.748413%)" offset="0.589844"/><stop stop-opacity="1" stop-color="rgb(60.224915%, 58.883667%, 57.975769%)" offset="0.59375"/><stop stop-opacity="1" stop-color="rgb(60.461426%, 59.112549%, 58.201599%)" offset="0.597656"/><stop stop-opacity="1" stop-color="rgb(60.699463%, 59.342957%, 58.428955%)" offset="0.601562"/><stop stop-opacity="1" stop-color="rgb(60.935974%, 59.571838%, 58.654785%)" offset="0.605469"/><stop stop-opacity="1" stop-color="rgb(61.174011%, 59.802246%, 58.880615%)" offset="0.609375"/><stop stop-opacity="1" stop-color="rgb(61.410522%, 60.031128%, 59.106445%)" offset="0.613281"/><stop stop-opacity="1" stop-color="rgb(61.64856%, 60.261536%, 59.333801%)" offset="0.617187"/><stop stop-opacity="1" stop-color="rgb(61.885071%, 60.490417%, 59.559631%)" offset="0.621094"/><stop stop-opacity="1" stop-color="rgb(62.123108%, 60.720825%, 59.786987%)" offset="0.625"/><stop stop-opacity="1" stop-color="rgb(62.359619%, 60.949707%, 60.012817%)" offset="0.628906"/><stop stop-opacity="1" stop-color="rgb(62.597656%, 61.180115%, 60.240173%)" offset="0.632812"/><stop stop-opacity="1" stop-color="rgb(62.834167%, 61.408997%, 60.466003%)" offset="0.636719"/><stop stop-opacity="1" stop-color="rgb(63.070679%, 61.639404%, 60.691833%)" offset="0.640625"/><stop stop-opacity="1" stop-color="rgb(63.30719%, 61.868286%, 60.917664%)" offset="0.644531"/><stop stop-opacity="1" stop-color="rgb(63.545227%, 62.098694%, 61.14502%)" offset="0.648437"/><stop stop-opacity="1" stop-color="rgb(63.781738%, 62.327576%, 61.37085%)" offset="0.652344"/><stop stop-opacity="1" stop-color="rgb(64.019775%, 62.557983%, 61.598206%)" offset="0.65625"/><stop stop-opacity="1" stop-color="rgb(64.256287%, 62.788391%, 61.824036%)" offset="0.660156"/><stop stop-opacity="1" stop-color="rgb(64.494324%, 63.018799%, 62.051392%)" offset="0.664062"/><stop stop-opacity="1" stop-color="rgb(64.730835%, 63.247681%, 62.277222%)" offset="0.667969"/><stop stop-opacity="1" stop-color="rgb(64.968872%, 63.478088%, 62.503052%)" offset="0.671875"/><stop stop-opacity="1" stop-color="rgb(65.205383%, 63.70697%, 62.728882%)" offset="0.675781"/><stop stop-opacity="1" stop-color="rgb(65.44342%, 63.937378%, 62.956238%)" offset="0.679687"/><stop stop-opacity="1" stop-color="rgb(65.679932%, 64.16626%, 63.182068%)" offset="0.683594"/><stop stop-opacity="1" stop-color="rgb(65.916443%, 64.396667%, 63.409424%)" offset="0.6875"/><stop stop-opacity="1" stop-color="rgb(66.152954%, 64.625549%, 63.635254%)" offset="0.691406"/><stop stop-opacity="1" stop-color="rgb(66.390991%, 64.855957%, 63.86261%)" offset="0.695312"/><stop stop-opacity="1" stop-color="rgb(66.627502%, 65.084839%, 64.08844%)" offset="0.699219"/><stop stop-opacity="1" stop-color="rgb(66.86554%, 65.315247%, 64.31427%)" offset="0.703125"/><stop stop-opacity="1" stop-color="rgb(67.102051%, 65.544128%, 64.5401%)" offset="0.707031"/><stop stop-opacity="1" stop-color="rgb(67.340088%, 65.774536%, 64.767456%)" offset="0.710937"/><stop stop-opacity="1" stop-color="rgb(67.576599%, 66.003418%, 64.993286%)" offset="0.714844"/><stop stop-opacity="1" stop-color="rgb(67.814636%, 66.233826%, 65.220642%)" offset="0.71875"/><stop stop-opacity="1" stop-color="rgb(68.051147%, 66.462708%, 65.446472%)" offset="0.722656"/><stop stop-opacity="1" stop-color="rgb(68.289185%, 66.693115%, 65.673828%)" offset="0.726562"/><stop stop-opacity="1" stop-color="rgb(68.525696%, 66.921997%, 65.899658%)" offset="0.730469"/><stop stop-opacity="1" stop-color="rgb(68.762207%, 67.152405%, 66.125488%)" offset="0.734375"/><stop stop-opacity="1" stop-color="rgb(68.998718%, 67.381287%, 66.351318%)" offset="0.738281"/><stop stop-opacity="1" stop-color="rgb(69.236755%, 67.611694%, 66.578674%)" offset="0.742187"/><stop stop-opacity="1" stop-color="rgb(69.473267%, 67.840576%, 66.804504%)" offset="0.746094"/><stop stop-opacity="1" stop-color="rgb(69.711304%, 68.070984%, 67.03186%)" offset="0.75"/><stop stop-opacity="1" stop-color="rgb(69.947815%, 68.301392%, 67.25769%)" offset="0.753906"/><stop stop-opacity="1" stop-color="rgb(70.185852%, 68.531799%, 67.485046%)" offset="0.757812"/><stop stop-opacity="1" stop-color="rgb(70.422363%, 68.760681%, 67.710876%)" offset="0.761719"/><stop stop-opacity="1" stop-color="rgb(70.6604%, 68.991089%, 67.936707%)" offset="0.765625"/><stop stop-opacity="1" stop-color="rgb(70.896912%, 69.219971%, 68.162537%)" offset="0.769531"/><stop stop-opacity="1" stop-color="rgb(71.134949%, 69.450378%, 68.389893%)" offset="0.773437"/><stop stop-opacity="1" stop-color="rgb(71.37146%, 69.67926%, 68.615723%)" offset="0.777344"/><stop stop-opacity="1" stop-color="rgb(71.607971%, 69.909668%, 68.843079%)" offset="0.78125"/><stop stop-opacity="1" stop-color="rgb(71.844482%, 70.13855%, 69.068909%)" offset="0.785156"/><stop stop-opacity="1" stop-color="rgb(72.08252%, 70.368958%, 69.296265%)" offset="0.789062"/><stop stop-opacity="1" stop-color="rgb(72.319031%, 70.597839%, 69.522095%)" offset="0.792969"/><stop stop-opacity="1" stop-color="rgb(72.557068%, 70.828247%, 69.749451%)" offset="0.796875"/><stop stop-opacity="1" stop-color="rgb(72.793579%, 71.057129%, 69.975281%)" offset="0.800781"/><stop stop-opacity="1" stop-color="rgb(73.031616%, 71.287537%, 70.201111%)" offset="0.804687"/><stop stop-opacity="1" stop-color="rgb(73.268127%, 71.516418%, 70.426941%)" offset="0.808594"/><stop stop-opacity="1" stop-color="rgb(73.506165%, 71.746826%, 70.654297%)" offset="0.8125"/><stop stop-opacity="1" stop-color="rgb(73.742676%, 71.975708%, 70.880127%)" offset="0.816406"/><stop stop-opacity="1" stop-color="rgb(73.980713%, 72.206116%, 71.107483%)" offset="0.820312"/><stop stop-opacity="1" stop-color="rgb(74.217224%, 72.434998%, 71.333313%)" offset="0.824219"/><stop stop-opacity="1" stop-color="rgb(74.453735%, 72.665405%, 71.560669%)" offset="0.828125"/><stop stop-opacity="1" stop-color="rgb(74.690247%, 72.894287%, 71.786499%)" offset="0.832031"/><stop stop-opacity="1" stop-color="rgb(74.928284%, 73.124695%, 72.012329%)" offset="0.835937"/><stop stop-opacity="1" stop-color="rgb(75.164795%, 73.355103%, 72.238159%)" offset="0.839844"/><stop stop-opacity="1" stop-color="rgb(75.402832%, 73.58551%, 72.465515%)" offset="0.84375"/><stop stop-opacity="1" stop-color="rgb(75.639343%, 73.814392%, 72.691345%)" offset="0.847656"/><stop stop-opacity="1" stop-color="rgb(75.87738%, 74.0448%, 72.918701%)" offset="0.851562"/><stop stop-opacity="1" stop-color="rgb(76.113892%, 74.273682%, 73.144531%)" offset="0.855469"/><stop stop-opacity="1" stop-color="rgb(76.351929%, 74.504089%, 73.371887%)" offset="0.859375"/><stop stop-opacity="1" stop-color="rgb(76.58844%, 74.732971%, 73.597717%)" offset="0.863281"/><stop stop-opacity="1" stop-color="rgb(76.826477%, 74.963379%, 73.823547%)" offset="0.867187"/><stop stop-opacity="1" stop-color="rgb(77.062988%, 75.192261%, 74.049377%)" offset="0.871094"/><stop stop-opacity="1" stop-color="rgb(77.301025%, 75.422668%, 74.276733%)" offset="0.875"/><stop stop-opacity="1" stop-color="rgb(77.537537%, 75.65155%, 74.502563%)" offset="0.878906"/><stop stop-opacity="1" stop-color="rgb(77.774048%, 75.881958%, 74.729919%)" offset="0.882812"/><stop stop-opacity="1" stop-color="rgb(78.010559%, 76.11084%, 74.95575%)" offset="0.886719"/><stop stop-opacity="1" stop-color="rgb(78.248596%, 76.341248%, 75.183105%)" offset="0.890625"/><stop stop-opacity="1" stop-color="rgb(78.485107%, 76.570129%, 75.408936%)" offset="0.894531"/><stop stop-opacity="1" stop-color="rgb(78.723145%, 76.800537%, 75.634766%)" offset="0.898438"/><stop stop-opacity="1" stop-color="rgb(78.959656%, 77.029419%, 75.860596%)" offset="0.902344"/><stop stop-opacity="1" stop-color="rgb(79.197693%, 77.259827%, 76.087952%)" offset="0.90625"/><stop stop-opacity="1" stop-color="rgb(79.434204%, 77.488708%, 76.313782%)" offset="0.910156"/><stop stop-opacity="1" stop-color="rgb(79.672241%, 77.719116%, 76.541138%)" offset="0.914062"/><stop stop-opacity="1" stop-color="rgb(79.908752%, 77.947998%, 76.766968%)" offset="0.917969"/><stop stop-opacity="1" stop-color="rgb(80.14679%, 78.178406%, 76.994324%)" offset="0.921875"/><stop stop-opacity="1" stop-color="rgb(80.383301%, 78.408813%, 77.220154%)" offset="0.925781"/><stop stop-opacity="1" stop-color="rgb(80.619812%, 78.639221%, 77.445984%)" offset="0.929687"/><stop stop-opacity="1" stop-color="rgb(80.856323%, 78.868103%, 77.671814%)" offset="0.933594"/><stop stop-opacity="1" stop-color="rgb(81.09436%, 79.098511%, 77.89917%)" offset="0.9375"/><stop stop-opacity="1" stop-color="rgb(81.14624%, 79.148865%, 77.949524%)" offset="1"/></linearGradient></defs><g clip-path="url(#0ccb237391)"><g clip-path="url(#3befeabe5a)"><path fill="url(#a291bf13bd)" d="M 2.59375 12.75 L 2.59375 52.453125 L 42.296875 52.453125 L 42.296875 12.75 Z M 2.59375 12.75 " fill-rule="nonzero"/></g></g><g fill="#ebe6e3" fill-opacity="1"><g transform="translate(43.866453, 39.67289)"><g><path d="M 6.46875 -2.296875 L 9.6875 -9.65625 L 11.171875 -9.65625 L 11.71875 0 L 10.234375 0 L 9.84375 -8.296875 L 9.78125 -8.296875 L 6.09375 0 L 5.890625 0 L 2.296875 -7.96875 L 2.234375 -7.96875 L 1.84375 0 L 1.203125 0 L 1.734375 -9.65625 L 3.09375 -9.65625 Z M 6.46875 -2.296875 "/></g></g></g><g fill="#ebe6e3" fill-opacity="1"><g transform="translate(58.842019, 39.67289)"><g><path d="M 1.3125 0 L 1.3125 -9.65625 L 7.171875 -9.65625 L 7.015625 -8.6875 L 4.3125 -9.140625 C 3.832031 -9.140625 3.304688 -9.054688 2.734375 -8.890625 L 2.734375 -5.34375 L 5.96875 -5.34375 L 5.96875 -4.78125 L 2.734375 -4.78125 L 2.734375 -0.53125 L 7.25 -0.984375 L 7.109375 0 Z M 1.3125 0 "/></g></g></g><g fill="#ebe6e3" fill-opacity="1"><g transform="translate(69.0448, 39.67289)"><g><path d="M 1.3125 0 L 1.3125 -9.65625 L 2.75 -9.65625 L 2.75 -0.78125 C 3.34375 -0.613281 3.816406 -0.53125 4.171875 -0.53125 L 6.8125 -0.984375 L 6.640625 0 Z M 1.3125 0 "/></g></g></g><g fill="#ebe6e3" fill-opacity="1"><g transform="translate(78.152904, 39.67289)"><g><path d="M 5.703125 -9.84375 C 6.972656 -9.84375 8.019531 -9.425781 8.84375 -8.59375 C 9.664062 -7.757812 10.078125 -6.601562 10.078125 -5.125 C 10.078125 -4.164062 9.910156 -3.328125 9.578125 -2.609375 C 9.253906 -1.898438 8.828125 -1.351562 8.296875 -0.96875 C 7.253906 -0.207031 6.101562 0.171875 4.84375 0.171875 C 3.59375 0.171875 2.554688 -0.242188 1.734375 -1.078125 C 0.910156 -1.921875 0.5 -3.082031 0.5 -4.5625 C 0.5 -5.332031 0.609375 -6.023438 0.828125 -6.640625 C 1.046875 -7.265625 1.332031 -7.769531 1.6875 -8.15625 C 2.039062 -8.539062 2.453125 -8.867188 2.921875 -9.140625 C 3.773438 -9.609375 4.703125 -9.84375 5.703125 -9.84375 Z M 2.765625 -1.65625 C 3.023438 -1.226562 3.367188 -0.894531 3.796875 -0.65625 C 4.222656 -0.425781 4.710938 -0.3125 5.265625 -0.3125 C 5.828125 -0.3125 6.328125 -0.453125 6.765625 -0.734375 C 7.203125 -1.015625 7.546875 -1.382812 7.796875 -1.84375 C 8.285156 -2.75 8.53125 -3.726562 8.53125 -4.78125 C 8.53125 -6.082031 8.273438 -7.125 7.765625 -7.90625 C 7.191406 -8.789062 6.242188 -9.234375 4.921875 -9.234375 C 3.972656 -8.898438 3.253906 -8.328125 2.765625 -7.515625 C 2.285156 -6.710938 2.046875 -5.800781 2.046875 -4.78125 C 2.046875 -3.539062 2.285156 -2.5 2.765625 -1.65625 Z M 2.765625 -1.65625 "/></g></g></g><g fill="#ebe6e3" fill-opacity="1"><g transform="translate(90.73478, 39.67289)"><g><path d="M 2.734375 -5.34375 L 5.828125 -5.34375 L 5.828125 -4.78125 L 2.734375 -4.78125 L 2.734375 0 L 1.3125 0 L 1.3125 -9.65625 L 7.015625 -9.65625 L 7.015625 -8.6875 L 4.3125 -9.140625 C 3.832031 -9.140625 3.304688 -9.054688 2.734375 -8.890625 Z M 2.734375 -5.34375 "/></g></g></g><g fill="#ebe6e3" fill-opacity="1"><g transform="translate(99.755308, 39.67289)"><g><path d="M 5.703125 -9.84375 C 6.972656 -9.84375 8.019531 -9.425781 8.84375 -8.59375 C 9.664062 -7.757812 10.078125 -6.601562 10.078125 -5.125 C 10.078125 -4.164062 9.910156 -3.328125 9.578125 -2.609375 C 9.253906 -1.898438 8.828125 -1.351562 8.296875 -0.96875 C 7.253906 -0.207031 6.101562 0.171875 4.84375 0.171875 C 3.59375 0.171875 2.554688 -0.242188 1.734375 -1.078125 C 0.910156 -1.921875 0.5 -3.082031 0.5 -4.5625 C 0.5 -5.332031 0.609375 -6.023438 0.828125 -6.640625 C 1.046875 -7.265625 1.332031 -7.769531 1.6875 -8.15625 C 2.039062 -8.539062 2.453125 -8.867188 2.921875 -9.140625 C 3.773438 -9.609375 4.703125 -9.84375 5.703125 -9.84375 Z M 2.765625 -1.65625 C 3.023438 -1.226562 3.367188 -0.894531 3.796875 -0.65625 C 4.222656 -0.425781 4.710938 -0.3125 5.265625 -0.3125 C 5.828125 -0.3125 6.328125 -0.453125 6.765625 -0.734375 C 7.203125 -1.015625 7.546875 -1.382812 7.796875 -1.84375 C 8.285156 -2.75 8.53125 -3.726562 8.53125 -4.78125 C 8.53125 -6.082031 8.273438 -7.125 7.765625 -7.90625 C 7.191406 -8.789062 6.242188 -9.234375 4.921875 -9.234375 C 3.972656 -8.898438 3.253906 -8.328125 2.765625 -7.515625 C 2.285156 -6.710938 2.046875 -5.800781 2.046875 -4.78125 C 2.046875 -3.539062 2.285156 -2.5 2.765625 -1.65625 Z M 2.765625 -1.65625 "/></g></g></g><g fill="#ebe6e3" fill-opacity="1"><g transform="translate(112.337186, 39.67289)"><g><path d="M 2.75 -4.609375 L 2.75 0 L 1.3125 0 L 1.3125 -9.65625 L 4.46875 -9.65625 C 5.445312 -9.65625 6.25 -9.4375 6.875 -9 C 7.507812 -8.5625 7.828125 -7.984375 7.828125 -7.265625 C 7.828125 -6.554688 7.570312 -5.992188 7.0625 -5.578125 C 6.5625 -5.171875 5.882812 -4.890625 5.03125 -4.734375 L 8.953125 0 L 7.25 0.203125 L 3.875 -4.609375 Z M 2.75 -5.046875 L 3.671875 -5.046875 C 5.421875 -5.046875 6.296875 -5.738281 6.296875 -7.125 C 6.296875 -7.351562 6.238281 -7.613281 6.125 -7.90625 C 5.90625 -8.519531 5.429688 -8.925781 4.703125 -9.125 C 4.035156 -9.125 3.382812 -9.039062 2.75 -8.875 Z M 2.75 -5.046875 "/></g></g></g><g fill="#ebe6e3" fill-opacity="1"><g transform="translate(123.649235, 39.67289)"><g><path d="M 2.359375 -7.984375 C 2.359375 -7.554688 2.523438 -7.160156 2.859375 -6.796875 C 3.203125 -6.429688 3.613281 -6.109375 4.09375 -5.828125 C 4.570312 -5.554688 5.050781 -5.273438 5.53125 -4.984375 C 6.007812 -4.691406 6.414062 -4.335938 6.75 -3.921875 C 7.082031 -3.503906 7.25 -3.046875 7.25 -2.546875 C 7.25 -1.742188 6.953125 -1.085938 6.359375 -0.578125 C 5.773438 -0.078125 4.984375 0.171875 3.984375 0.171875 C 2.984375 0.171875 1.988281 -0.015625 1 -0.390625 L 1 -1.078125 C 2 -0.578125 2.84375 -0.328125 3.53125 -0.328125 C 4.226562 -0.328125 4.769531 -0.5 5.15625 -0.84375 C 5.550781 -1.1875 5.75 -1.660156 5.75 -2.265625 C 5.75 -2.671875 5.585938 -3.039062 5.265625 -3.375 C 4.941406 -3.707031 4.550781 -4 4.09375 -4.25 C 3.644531 -4.5 3.191406 -4.753906 2.734375 -5.015625 C 2.273438 -5.285156 1.882812 -5.617188 1.5625 -6.015625 C 1.238281 -6.421875 1.078125 -6.910156 1.078125 -7.484375 C 1.078125 -8.054688 1.332031 -8.59375 1.84375 -9.09375 C 2.351562 -9.59375 3.113281 -9.84375 4.125 -9.84375 C 4.789062 -9.84375 5.628906 -9.691406 6.640625 -9.390625 L 6.5 -8.390625 C 5.1875 -8.953125 4.0625 -9.234375 3.125 -9.234375 C 2.613281 -8.992188 2.359375 -8.578125 2.359375 -7.984375 Z M 2.359375 -7.984375 "/></g></g></g></svg>