<svg xmlns="http://www.w3.org/2000/svg" xmlns:xlink="http://www.w3.org/1999/xlink" width="50" zoomAndPan="magnify" viewBox="0 0 37.5 37.499999" height="50" preserveAspectRatio="xMidYMid meet" version="1.0"><defs><clipPath id="8263ce3438"><path d="M 0 0 L 37.007812 0 L 37.007812 37.007812 L 0 37.007812 Z M 0 0 " clip-rule="nonzero"/></clipPath><clipPath id="bec88925a3"><path d="M 18.75 0 C 8.394531 0 0 8.394531 0 18.75 C 0 29.105469 8.394531 37.5 18.75 37.5 C 29.105469 37.5 37.5 29.105469 37.5 18.75 C 37.5 8.394531 29.105469 0 18.75 0 " clip-rule="nonzero"/></clipPath><clipPath id="e315c6b558"><path d="M 6.757812 6.617188 L 33 6.617188 L 33 32.867188 L 6.757812 32.867188 Z M 6.757812 6.617188 " clip-rule="nonzero"/></clipPath><clipPath id="68e6866d7b"><path d="M 26.046875 22.105469 L 29.457031 24.113281 C 29.828125 24.328125 29.953125 24.792969 29.734375 25.164062 C 28.625 27.03125 27.066406 28.574219 25.210938 29.65625 C 23.40625 30.691406 21.304688 31.277344 19.082031 31.277344 C 18.925781 31.277344 18.726562 31.277344 18.496094 31.261719 L 18.464844 31.261719 C 18.230469 31.742188 17.863281 32.128906 17.414062 32.390625 C 16.828125 32.730469 16.117188 32.835938 15.421875 32.652344 C 14.710938 32.46875 14.15625 32.003906 13.816406 31.433594 C 13.476562 30.847656 13.367188 30.136719 13.554688 29.425781 C 13.738281 28.730469 14.203125 28.160156 14.773438 27.835938 C 15.359375 27.496094 16.085938 27.371094 16.78125 27.558594 C 17.476562 27.757812 18.046875 28.207031 18.386719 28.792969 C 18.539062 29.070312 18.648438 29.394531 18.710938 29.71875 C 18.820312 29.71875 18.941406 29.734375 19.082031 29.734375 C 21.027344 29.734375 22.863281 29.210938 24.441406 28.3125 C 25.84375 27.496094 27.066406 26.382812 27.992188 25.039062 L 25.273438 23.449219 C 25.042969 23.773438 24.777344 24.066406 24.5 24.359375 C 23.113281 25.734375 21.195312 26.601562 19.082031 26.601562 C 16.980469 26.601562 15.066406 25.734375 13.675781 24.359375 C 13.382812 24.050781 13.089844 23.710938 12.84375 23.355469 L 9.398438 25.289062 C 9.027344 25.503906 8.550781 25.363281 8.351562 24.992188 L 8.335938 24.992188 C 7.824219 24.050781 7.421875 23.0625 7.160156 22.042969 C 6.898438 21.039062 6.757812 20.007812 6.757812 18.941406 C 6.757812 17.644531 6.960938 16.394531 7.332031 15.21875 C 7.671875 14.152344 8.148438 13.164062 8.734375 12.253906 C 8.425781 11.808594 8.289062 11.296875 8.289062 10.773438 C 8.289062 10.109375 8.535156 9.429688 9.058594 8.917969 C 9.570312 8.394531 10.25 8.148438 10.914062 8.148438 C 11.59375 8.148438 12.273438 8.394531 12.78125 8.917969 C 13.289062 9.429688 13.554688 10.109375 13.554688 10.773438 C 13.554688 11.453125 13.289062 12.132812 12.78125 12.640625 C 12.273438 13.148438 11.59375 13.414062 10.914062 13.414062 C 10.589844 13.414062 10.265625 13.351562 9.957031 13.226562 C 9.476562 13.984375 9.089844 14.816406 8.8125 15.683594 C 8.488281 16.71875 8.304688 17.8125 8.304688 18.941406 C 8.304688 19.882812 8.425781 20.792969 8.660156 21.660156 C 8.828125 22.308594 9.058594 22.941406 9.339844 23.542969 L 12.085938 22.011719 C 11.667969 21.070312 11.4375 20.039062 11.4375 18.941406 C 11.4375 16.839844 12.304688 14.925781 13.675781 13.535156 C 14.898438 12.332031 16.519531 11.527344 18.308594 11.34375 L 18.308594 7.390625 C 18.308594 6.957031 18.664062 6.617188 19.082031 6.617188 C 21.519531 6.617188 23.804688 7.328125 25.722656 8.5625 C 27.558594 9.738281 29.070312 11.375 30.058594 13.335938 C 30.601562 13.289062 31.125 13.414062 31.558594 13.675781 L 31.574219 13.675781 C 32.144531 14.015625 32.609375 14.570312 32.792969 15.28125 C 32.976562 15.976562 32.871094 16.6875 32.53125 17.273438 C 32.191406 17.859375 31.636719 18.324219 30.925781 18.507812 C 30.230469 18.695312 29.519531 18.570312 28.933594 18.246094 L 28.933594 18.230469 L 28.933594 18.246094 C 28.347656 17.90625 27.898438 17.335938 27.699219 16.640625 C 27.511719 15.945312 27.636719 15.234375 27.976562 14.648438 L 27.976562 14.632812 C 28.128906 14.355469 28.347656 14.09375 28.609375 13.890625 C 27.742188 12.253906 26.445312 10.863281 24.886719 9.863281 C 23.421875 8.917969 21.707031 8.332031 19.867188 8.195312 L 19.867188 11.34375 C 21.660156 11.527344 23.28125 12.332031 24.5 13.535156 C 25.875 14.925781 26.742188 16.839844 26.742188 18.941406 C 26.742188 20.082031 26.492188 21.148438 26.046875 22.105469 Z M 23.40625 14.632812 C 22.292969 13.535156 20.765625 12.855469 19.082031 12.855469 C 17.414062 12.855469 15.886719 13.535156 14.773438 14.632812 C 13.675781 15.746094 12.996094 17.273438 12.996094 18.941406 C 12.996094 20.625 13.675781 22.152344 14.773438 23.265625 C 15.886719 24.359375 17.414062 25.039062 19.082031 25.039062 C 20.765625 25.039062 22.292969 24.359375 23.40625 23.265625 C 24.5 22.152344 25.179688 20.625 25.179688 18.941406 C 25.179688 17.273438 24.5 15.746094 23.40625 14.632812 Z M 19.082031 15.820312 C 19.945312 15.820312 20.734375 16.175781 21.289062 16.75 C 21.859375 17.304688 22.214844 18.089844 22.214844 18.941406 C 22.214844 19.804688 21.859375 20.59375 21.289062 21.148438 C 20.734375 21.71875 19.945312 22.074219 19.082031 22.074219 C 18.230469 22.074219 17.445312 21.71875 16.890625 21.148438 C 16.316406 20.59375 15.960938 19.804688 15.960938 18.941406 C 15.960938 18.089844 16.316406 17.304688 16.890625 16.75 C 17.445312 16.175781 18.230469 15.820312 19.082031 15.820312 Z M 20.191406 17.84375 C 19.914062 17.550781 19.527344 17.382812 19.082031 17.382812 C 18.648438 17.382812 18.261719 17.550781 17.984375 17.84375 C 17.691406 18.121094 17.523438 18.507812 17.523438 18.941406 C 17.523438 19.386719 17.691406 19.773438 17.984375 20.050781 C 18.261719 20.347656 18.648438 20.515625 19.082031 20.515625 C 19.527344 20.515625 19.914062 20.347656 20.191406 20.050781 C 20.488281 19.773438 20.65625 19.386719 20.65625 18.941406 C 20.65625 18.507812 20.488281 18.121094 20.191406 17.84375 Z M 10.914062 9.691406 C 10.636719 9.691406 10.355469 9.800781 10.15625 10.015625 C 9.941406 10.214844 9.832031 10.496094 9.832031 10.773438 C 9.832031 11.050781 9.941406 11.328125 10.15625 11.542969 C 10.355469 11.761719 10.636719 11.867188 10.914062 11.867188 C 11.191406 11.867188 11.46875 11.761719 11.683594 11.542969 C 11.902344 11.328125 12.007812 11.050781 12.007812 10.773438 C 12.007812 10.496094 11.902344 10.214844 11.683594 10.015625 C 11.46875 9.800781 11.191406 9.691406 10.914062 9.691406 Z M 15.160156 30.644531 C 15.296875 30.890625 15.53125 31.078125 15.824219 31.15625 C 16.101562 31.230469 16.394531 31.1875 16.640625 31.046875 C 16.890625 30.90625 17.074219 30.675781 17.152344 30.398438 C 17.226562 30.105469 17.183594 29.8125 17.042969 29.5625 C 16.902344 29.332031 16.671875 29.132812 16.378906 29.054688 C 16.085938 28.976562 15.792969 29.023438 15.5625 29.164062 C 15.3125 29.300781 15.128906 29.535156 15.050781 29.828125 C 14.972656 30.121094 15.019531 30.414062 15.160156 30.644531 Z M 31.1875 16.5 C 31.328125 16.253906 31.371094 15.960938 31.296875 15.683594 C 31.21875 15.390625 31.03125 15.15625 30.785156 15.019531 C 30.554688 14.878906 30.261719 14.832031 29.96875 14.910156 C 29.675781 14.988281 29.441406 15.171875 29.304688 15.421875 C 29.164062 15.652344 29.117188 15.945312 29.195312 16.238281 C 29.273438 16.53125 29.472656 16.761719 29.703125 16.902344 C 29.953125 17.042969 30.246094 17.085938 30.539062 17.011719 C 30.816406 16.933594 31.046875 16.75 31.1875 16.5 Z M 31.1875 16.5 " clip-rule="nonzero"/></clipPath><linearGradient x1="5.467643" gradientTransform="matrix(1.544117, 0, 0, 1.544117, 6.759375, 6.618751)" y1="18.393142" x2="10.644645" gradientUnits="userSpaceOnUse" y2="-1.637405" id="f76b076a2f"><stop stop-opacity="1" stop-color="rgb(39.035034%, 38.296509%, 37.496948%)" offset="0"/><stop stop-opacity="1" stop-color="rgb(39.147949%, 38.406372%, 37.606812%)" offset="0.0078125"/><stop stop-opacity="1" stop-color="rgb(39.373779%, 38.626099%, 37.826538%)" offset="0.015625"/><stop stop-opacity="1" stop-color="rgb(39.599609%, 38.845825%, 38.044739%)" offset="0.0234375"/><stop stop-opacity="1" stop-color="rgb(39.823914%, 39.065552%, 38.264465%)" offset="0.03125"/><stop stop-opacity="1" stop-color="rgb(40.049744%, 39.283752%, 38.484192%)" offset="0.0390625"/><stop stop-opacity="1" stop-color="rgb(40.275574%, 39.503479%, 38.703918%)" offset="0.046875"/><stop stop-opacity="1" stop-color="rgb(40.501404%, 39.723206%, 38.923645%)" offset="0.0546875"/><stop stop-opacity="1" stop-color="rgb(40.727234%, 39.942932%, 39.143372%)" offset="0.0625"/><stop stop-opacity="1" stop-color="rgb(40.951538%, 40.162659%, 39.361572%)" offset="0.0703125"/><stop stop-opacity="1" stop-color="rgb(41.177368%, 40.380859%, 39.581299%)" offset="0.078125"/><stop stop-opacity="1" stop-color="rgb(41.403198%, 40.600586%, 39.801025%)" offset="0.0859375"/><stop stop-opacity="1" stop-color="rgb(41.629028%, 40.820312%, 40.020752%)" offset="0.09375"/><stop stop-opacity="1" stop-color="rgb(41.853333%, 41.040039%, 40.240479%)" offset="0.101562"/><stop stop-opacity="1" stop-color="rgb(42.079163%, 41.259766%, 40.458679%)" offset="0.109375"/><stop stop-opacity="1" stop-color="rgb(42.304993%, 41.477966%, 40.678406%)" offset="0.117187"/><stop stop-opacity="1" stop-color="rgb(42.530823%, 41.697693%, 40.898132%)" offset="0.125"/><stop stop-opacity="1" stop-color="rgb(42.756653%, 41.917419%, 41.117859%)" offset="0.132812"/><stop stop-opacity="1" stop-color="rgb(42.980957%, 42.137146%, 41.337585%)" offset="0.140625"/><stop stop-opacity="1" stop-color="rgb(43.206787%, 42.356873%, 41.555786%)" offset="0.148437"/><stop stop-opacity="1" stop-color="rgb(43.432617%, 42.575073%, 41.775513%)" offset="0.15625"/><stop stop-opacity="1" stop-color="rgb(43.658447%, 42.7948%, 41.995239%)" offset="0.164062"/><stop stop-opacity="1" stop-color="rgb(43.882751%, 43.014526%, 42.214966%)" offset="0.171875"/><stop stop-opacity="1" stop-color="rgb(44.108582%, 43.234253%, 42.434692%)" offset="0.179687"/><stop stop-opacity="1" stop-color="rgb(44.334412%, 43.453979%, 42.652893%)" offset="0.1875"/><stop stop-opacity="1" stop-color="rgb(44.560242%, 43.67218%, 42.87262%)" offset="0.195312"/><stop stop-opacity="1" stop-color="rgb(44.784546%, 43.891907%, 43.092346%)" offset="0.203125"/><stop stop-opacity="1" stop-color="rgb(45.010376%, 44.111633%, 43.312073%)" offset="0.205375"/><stop stop-opacity="1" stop-color="rgb(45.123291%, 44.221497%, 43.421936%)" offset="0.210937"/><stop stop-opacity="1" stop-color="rgb(45.236206%, 44.33136%, 43.531799%)" offset="0.21875"/><stop stop-opacity="1" stop-color="rgb(45.462036%, 44.551086%, 43.75%)" offset="0.226562"/><stop stop-opacity="1" stop-color="rgb(45.687866%, 44.770813%, 43.969727%)" offset="0.234375"/><stop stop-opacity="1" stop-color="rgb(45.91217%, 44.989014%, 44.189453%)" offset="0.242187"/><stop stop-opacity="1" stop-color="rgb(46.138%, 45.20874%, 44.40918%)" offset="0.25"/><stop stop-opacity="1" stop-color="rgb(46.363831%, 45.428467%, 44.628906%)" offset="0.257812"/><stop stop-opacity="1" stop-color="rgb(46.589661%, 45.648193%, 44.847107%)" offset="0.265625"/><stop stop-opacity="1" stop-color="rgb(46.813965%, 45.86792%, 45.066833%)" offset="0.273437"/><stop stop-opacity="1" stop-color="rgb(47.039795%, 46.086121%, 45.28656%)" offset="0.28125"/><stop stop-opacity="1" stop-color="rgb(47.265625%, 46.305847%, 45.506287%)" offset="0.289062"/><stop stop-opacity="1" stop-color="rgb(47.491455%, 46.525574%, 45.726013%)" offset="0.296875"/><stop stop-opacity="1" stop-color="rgb(47.717285%, 46.7453%, 45.944214%)" offset="0.304688"/><stop stop-opacity="1" stop-color="rgb(47.941589%, 46.965027%, 46.16394%)" offset="0.3125"/><stop stop-opacity="1" stop-color="rgb(48.167419%, 47.183228%, 46.383667%)" offset="0.320312"/><stop stop-opacity="1" stop-color="rgb(48.39325%, 47.402954%, 46.603394%)" offset="0.328125"/><stop stop-opacity="1" stop-color="rgb(48.61908%, 47.622681%, 46.82312%)" offset="0.335937"/><stop stop-opacity="1" stop-color="rgb(48.843384%, 47.842407%, 47.042847%)" offset="0.34375"/><stop stop-opacity="1" stop-color="rgb(49.069214%, 48.062134%, 47.261047%)" offset="0.351562"/><stop stop-opacity="1" stop-color="rgb(49.295044%, 48.280334%, 47.480774%)" offset="0.359375"/><stop stop-opacity="1" stop-color="rgb(49.520874%, 48.500061%, 47.7005%)" offset="0.367187"/><stop stop-opacity="1" stop-color="rgb(49.745178%, 48.719788%, 47.920227%)" offset="0.375"/><stop stop-opacity="1" stop-color="rgb(49.971008%, 48.939514%, 48.139954%)" offset="0.382812"/><stop stop-opacity="1" stop-color="rgb(50.196838%, 49.159241%, 48.358154%)" offset="0.390625"/><stop stop-opacity="1" stop-color="rgb(50.422668%, 49.377441%, 48.577881%)" offset="0.398437"/><stop stop-opacity="1" stop-color="rgb(50.648499%, 49.597168%, 48.797607%)" offset="0.40625"/><stop stop-opacity="1" stop-color="rgb(50.872803%, 49.816895%, 49.017334%)" offset="0.414062"/><stop stop-opacity="1" stop-color="rgb(51.098633%, 50.036621%, 49.237061%)" offset="0.421875"/><stop stop-opacity="1" stop-color="rgb(51.324463%, 50.256348%, 49.455261%)" offset="0.429687"/><stop stop-opacity="1" stop-color="rgb(51.550293%, 50.474548%, 49.674988%)" offset="0.4375"/><stop stop-opacity="1" stop-color="rgb(51.774597%, 50.694275%, 49.894714%)" offset="0.445312"/><stop stop-opacity="1" stop-color="rgb(52.000427%, 50.914001%, 50.114441%)" offset="0.453125"/><stop stop-opacity="1" stop-color="rgb(52.226257%, 51.133728%, 50.334167%)" offset="0.460938"/><stop stop-opacity="1" stop-color="rgb(52.487183%, 51.387024%, 50.587463%)" offset="0.46875"/><stop stop-opacity="1" stop-color="rgb(52.87323%, 51.760864%, 50.956726%)" offset="0.472656"/><stop stop-opacity="1" stop-color="rgb(53.111267%, 51.991272%, 51.182556%)" offset="0.476562"/><stop stop-opacity="1" stop-color="rgb(53.347778%, 52.220154%, 51.408386%)" offset="0.480469"/><stop stop-opacity="1" stop-color="rgb(53.585815%, 52.450562%, 51.635742%)" offset="0.484375"/><stop stop-opacity="1" stop-color="rgb(53.822327%, 52.680969%, 51.861572%)" offset="0.488281"/><stop stop-opacity="1" stop-color="rgb(54.060364%, 52.911377%, 52.088928%)" offset="0.492187"/><stop stop-opacity="1" stop-color="rgb(54.296875%, 53.140259%, 52.314758%)" offset="0.496094"/><stop stop-opacity="1" stop-color="rgb(54.533386%, 53.370667%, 52.542114%)" offset="0.5"/><stop stop-opacity="1" stop-color="rgb(54.769897%, 53.599548%, 52.767944%)" offset="0.503906"/><stop stop-opacity="1" stop-color="rgb(55.007935%, 53.829956%, 52.9953%)" offset="0.507813"/><stop stop-opacity="1" stop-color="rgb(55.244446%, 54.058838%, 53.22113%)" offset="0.511719"/><stop stop-opacity="1" stop-color="rgb(55.482483%, 54.289246%, 53.44696%)" offset="0.515625"/><stop stop-opacity="1" stop-color="rgb(55.718994%, 54.518127%, 53.672791%)" offset="0.519531"/><stop stop-opacity="1" stop-color="rgb(55.957031%, 54.748535%, 53.900146%)" offset="0.523438"/><stop stop-opacity="1" stop-color="rgb(56.193542%, 54.977417%, 54.125977%)" offset="0.527344"/><stop stop-opacity="1" stop-color="rgb(56.43158%, 55.207825%, 54.353333%)" offset="0.53125"/><stop stop-opacity="1" stop-color="rgb(56.668091%, 55.436707%, 54.579163%)" offset="0.535156"/><stop stop-opacity="1" stop-color="rgb(56.906128%, 55.667114%, 54.806519%)" offset="0.539062"/><stop stop-opacity="1" stop-color="rgb(57.142639%, 55.895996%, 55.032349%)" offset="0.542969"/><stop stop-opacity="1" stop-color="rgb(57.37915%, 56.126404%, 55.258179%)" offset="0.546875"/><stop stop-opacity="1" stop-color="rgb(57.615662%, 56.355286%, 55.484009%)" offset="0.550781"/><stop stop-opacity="1" stop-color="rgb(57.853699%, 56.585693%, 55.711365%)" offset="0.554688"/><stop stop-opacity="1" stop-color="rgb(58.09021%, 56.814575%, 55.937195%)" offset="0.558594"/><stop stop-opacity="1" stop-color="rgb(58.328247%, 57.044983%, 56.164551%)" offset="0.5625"/><stop stop-opacity="1" stop-color="rgb(58.564758%, 57.273865%, 56.390381%)" offset="0.566406"/><stop stop-opacity="1" stop-color="rgb(58.802795%, 57.504272%, 56.617737%)" offset="0.570312"/><stop stop-opacity="1" stop-color="rgb(59.039307%, 57.73468%, 56.843567%)" offset="0.574219"/><stop stop-opacity="1" stop-color="rgb(59.277344%, 57.965088%, 57.069397%)" offset="0.578125"/><stop stop-opacity="1" stop-color="rgb(59.513855%, 58.19397%, 57.295227%)" offset="0.582031"/><stop stop-opacity="1" stop-color="rgb(59.751892%, 58.424377%, 57.522583%)" offset="0.585938"/><stop stop-opacity="1" stop-color="rgb(59.988403%, 58.653259%, 57.748413%)" offset="0.589844"/><stop stop-opacity="1" stop-color="rgb(60.224915%, 58.883667%, 57.975769%)" offset="0.59375"/><stop stop-opacity="1" stop-color="rgb(60.461426%, 59.112549%, 58.201599%)" offset="0.597656"/><stop stop-opacity="1" stop-color="rgb(60.699463%, 59.342957%, 58.428955%)" offset="0.601563"/><stop stop-opacity="1" stop-color="rgb(60.935974%, 59.571838%, 58.654785%)" offset="0.605469"/><stop stop-opacity="1" stop-color="rgb(61.174011%, 59.802246%, 58.880615%)" offset="0.609375"/><stop stop-opacity="1" stop-color="rgb(61.410522%, 60.031128%, 59.106445%)" offset="0.613281"/><stop stop-opacity="1" stop-color="rgb(61.64856%, 60.261536%, 59.333801%)" offset="0.617188"/><stop stop-opacity="1" stop-color="rgb(61.885071%, 60.490417%, 59.559631%)" offset="0.621094"/><stop stop-opacity="1" stop-color="rgb(62.123108%, 60.720825%, 59.786987%)" offset="0.625"/><stop stop-opacity="1" stop-color="rgb(62.359619%, 60.949707%, 60.012817%)" offset="0.628906"/><stop stop-opacity="1" stop-color="rgb(62.597656%, 61.180115%, 60.240173%)" offset="0.632812"/><stop stop-opacity="1" stop-color="rgb(62.834167%, 61.408997%, 60.466003%)" offset="0.636719"/><stop stop-opacity="1" stop-color="rgb(63.070679%, 61.639404%, 60.691833%)" offset="0.640625"/><stop stop-opacity="1" stop-color="rgb(63.30719%, 61.868286%, 60.917664%)" offset="0.644531"/><stop stop-opacity="1" stop-color="rgb(63.545227%, 62.098694%, 61.14502%)" offset="0.648437"/><stop stop-opacity="1" stop-color="rgb(63.781738%, 62.327576%, 61.37085%)" offset="0.652344"/><stop stop-opacity="1" stop-color="rgb(64.019775%, 62.557983%, 61.598206%)" offset="0.65625"/><stop stop-opacity="1" stop-color="rgb(64.256287%, 62.788391%, 61.824036%)" offset="0.660156"/><stop stop-opacity="1" stop-color="rgb(64.494324%, 63.018799%, 62.051392%)" offset="0.664063"/><stop stop-opacity="1" stop-color="rgb(64.730835%, 63.247681%, 62.277222%)" offset="0.667969"/><stop stop-opacity="1" stop-color="rgb(64.968872%, 63.478088%, 62.503052%)" offset="0.671875"/><stop stop-opacity="1" stop-color="rgb(65.205383%, 63.70697%, 62.728882%)" offset="0.675781"/><stop stop-opacity="1" stop-color="rgb(65.44342%, 63.937378%, 62.956238%)" offset="0.679688"/><stop stop-opacity="1" stop-color="rgb(65.679932%, 64.16626%, 63.182068%)" offset="0.683594"/><stop stop-opacity="1" stop-color="rgb(65.916443%, 64.396667%, 63.409424%)" offset="0.6875"/><stop stop-opacity="1" stop-color="rgb(66.152954%, 64.625549%, 63.635254%)" offset="0.691406"/><stop stop-opacity="1" stop-color="rgb(66.390991%, 64.855957%, 63.86261%)" offset="0.695312"/><stop stop-opacity="1" stop-color="rgb(66.627502%, 65.084839%, 64.08844%)" offset="0.699219"/><stop stop-opacity="1" stop-color="rgb(66.86554%, 65.315247%, 64.31427%)" offset="0.703125"/><stop stop-opacity="1" stop-color="rgb(67.102051%, 65.544128%, 64.5401%)" offset="0.707031"/><stop stop-opacity="1" stop-color="rgb(67.340088%, 65.774536%, 64.767456%)" offset="0.710937"/><stop stop-opacity="1" stop-color="rgb(67.576599%, 66.003418%, 64.993286%)" offset="0.714844"/><stop stop-opacity="1" stop-color="rgb(67.814636%, 66.233826%, 65.220642%)" offset="0.71875"/><stop stop-opacity="1" stop-color="rgb(68.051147%, 66.462708%, 65.446472%)" offset="0.722656"/><stop stop-opacity="1" stop-color="rgb(68.289185%, 66.693115%, 65.673828%)" offset="0.726562"/><stop stop-opacity="1" stop-color="rgb(68.525696%, 66.921997%, 65.899658%)" offset="0.730469"/><stop stop-opacity="1" stop-color="rgb(68.762207%, 67.152405%, 66.125488%)" offset="0.734375"/><stop stop-opacity="1" stop-color="rgb(68.998718%, 67.381287%, 66.351318%)" offset="0.738281"/><stop stop-opacity="1" stop-color="rgb(69.236755%, 67.611694%, 66.578674%)" offset="0.742188"/><stop stop-opacity="1" stop-color="rgb(69.473267%, 67.840576%, 66.804504%)" offset="0.746094"/><stop stop-opacity="1" stop-color="rgb(69.711304%, 68.070984%, 67.03186%)" offset="0.75"/><stop stop-opacity="1" stop-color="rgb(69.947815%, 68.301392%, 67.25769%)" offset="0.753906"/><stop stop-opacity="1" stop-color="rgb(70.185852%, 68.531799%, 67.485046%)" offset="0.757812"/><stop stop-opacity="1" stop-color="rgb(70.422363%, 68.760681%, 67.710876%)" offset="0.761719"/><stop stop-opacity="1" stop-color="rgb(70.6604%, 68.991089%, 67.936707%)" offset="0.765625"/><stop stop-opacity="1" stop-color="rgb(70.896912%, 69.219971%, 68.162537%)" offset="0.769531"/><stop stop-opacity="1" stop-color="rgb(71.134949%, 69.450378%, 68.389893%)" offset="0.773437"/><stop stop-opacity="1" stop-color="rgb(71.37146%, 69.67926%, 68.615723%)" offset="0.777344"/><stop stop-opacity="1" stop-color="rgb(71.607971%, 69.909668%, 68.843079%)" offset="0.78125"/><stop stop-opacity="1" stop-color="rgb(71.844482%, 70.13855%, 69.068909%)" offset="0.785156"/><stop stop-opacity="1" stop-color="rgb(72.08252%, 70.368958%, 69.296265%)" offset="0.789062"/><stop stop-opacity="1" stop-color="rgb(72.319031%, 70.597839%, 69.522095%)" offset="0.792969"/><stop stop-opacity="1" stop-color="rgb(72.557068%, 70.828247%, 69.749451%)" offset="0.796875"/><stop stop-opacity="1" stop-color="rgb(72.793579%, 71.057129%, 69.975281%)" offset="0.800781"/><stop stop-opacity="1" stop-color="rgb(73.031616%, 71.287537%, 70.201111%)" offset="0.804687"/><stop stop-opacity="1" stop-color="rgb(73.268127%, 71.516418%, 70.426941%)" offset="0.808594"/><stop stop-opacity="1" stop-color="rgb(73.506165%, 71.746826%, 70.654297%)" offset="0.8125"/><stop stop-opacity="1" stop-color="rgb(73.742676%, 71.975708%, 70.880127%)" offset="0.816406"/><stop stop-opacity="1" stop-color="rgb(73.980713%, 72.206116%, 71.107483%)" offset="0.820312"/><stop stop-opacity="1" stop-color="rgb(74.217224%, 72.434998%, 71.333313%)" offset="0.824219"/><stop stop-opacity="1" stop-color="rgb(74.453735%, 72.665405%, 71.560669%)" offset="0.828125"/><stop stop-opacity="1" stop-color="rgb(74.690247%, 72.894287%, 71.786499%)" offset="0.832031"/><stop stop-opacity="1" stop-color="rgb(74.928284%, 73.124695%, 72.012329%)" offset="0.835938"/><stop stop-opacity="1" stop-color="rgb(75.164795%, 73.355103%, 72.238159%)" offset="0.839844"/><stop stop-opacity="1" stop-color="rgb(75.402832%, 73.58551%, 72.465515%)" offset="0.84375"/><stop stop-opacity="1" stop-color="rgb(75.639343%, 73.814392%, 72.691345%)" offset="0.847656"/><stop stop-opacity="1" stop-color="rgb(75.87738%, 74.0448%, 72.918701%)" offset="0.851562"/><stop stop-opacity="1" stop-color="rgb(76.113892%, 74.273682%, 73.144531%)" offset="0.855469"/><stop stop-opacity="1" stop-color="rgb(76.351929%, 74.504089%, 73.371887%)" offset="0.859375"/><stop stop-opacity="1" stop-color="rgb(76.58844%, 74.732971%, 73.597717%)" offset="0.863281"/><stop stop-opacity="1" stop-color="rgb(76.826477%, 74.963379%, 73.823547%)" offset="0.867187"/><stop stop-opacity="1" stop-color="rgb(77.062988%, 75.192261%, 74.049377%)" offset="0.871094"/><stop stop-opacity="1" stop-color="rgb(77.301025%, 75.422668%, 74.276733%)" offset="0.875"/><stop stop-opacity="1" stop-color="rgb(77.537537%, 75.65155%, 74.502563%)" offset="0.878906"/><stop stop-opacity="1" stop-color="rgb(77.774048%, 75.881958%, 74.729919%)" offset="0.882812"/><stop stop-opacity="1" stop-color="rgb(78.010559%, 76.11084%, 74.95575%)" offset="0.886719"/><stop stop-opacity="1" stop-color="rgb(78.248596%, 76.341248%, 75.183105%)" offset="0.890625"/><stop stop-opacity="1" stop-color="rgb(78.485107%, 76.570129%, 75.408936%)" offset="0.894531"/><stop stop-opacity="1" stop-color="rgb(78.723145%, 76.800537%, 75.634766%)" offset="0.898438"/><stop stop-opacity="1" stop-color="rgb(78.959656%, 77.029419%, 75.860596%)" offset="0.902344"/><stop stop-opacity="1" stop-color="rgb(79.197693%, 77.259827%, 76.087952%)" offset="0.90625"/><stop stop-opacity="1" stop-color="rgb(79.434204%, 77.488708%, 76.313782%)" offset="0.910156"/><stop stop-opacity="1" stop-color="rgb(79.672241%, 77.719116%, 76.541138%)" offset="0.914062"/><stop stop-opacity="1" stop-color="rgb(79.908752%, 77.947998%, 76.766968%)" offset="0.917969"/><stop stop-opacity="1" stop-color="rgb(80.14679%, 78.178406%, 76.994324%)" offset="0.921875"/><stop stop-opacity="1" stop-color="rgb(80.383301%, 78.408813%, 77.220154%)" offset="0.925781"/><stop stop-opacity="1" stop-color="rgb(80.619812%, 78.639221%, 77.445984%)" offset="0.929688"/><stop stop-opacity="1" stop-color="rgb(80.856323%, 78.868103%, 77.671814%)" offset="0.933594"/><stop stop-opacity="1" stop-color="rgb(81.09436%, 79.098511%, 77.89917%)" offset="0.9375"/><stop stop-opacity="1" stop-color="rgb(81.14624%, 79.148865%, 77.949524%)" offset="1"/></linearGradient></defs><g clip-path="url(#8263ce3438)"><g clip-path="url(#bec88925a3)"><path fill="#000000" d="M 0 0 L 37.5 0 L 37.5 37.5 L 0 37.5 Z M 0 0 " fill-opacity="1" fill-rule="nonzero"/></g></g><g clip-path="url(#e315c6b558)"><g clip-path="url(#68e6866d7b)"><path fill="url(#f76b076a2f)" d="M 6.757812 6.617188 L 6.757812 32.835938 L 32.976562 32.835938 L 32.976562 6.617188 Z M 6.757812 6.617188 " fill-rule="nonzero"/></g></g></svg>